# xmcd CD database file
#
# Track frame offsets:
#	150
#	20095
#	36352
#	53621
#	84180
#	100201
#	117408
#	133972
#	155798
#	176671
#	194385
#	213429
#
# Disc length: 3157 seconds
#
# Revision: 3
# Processed by: cddbd v1.5.2PL0 Copyright (c) Steve Scherf et al.
# Submitted via: CDex 1.51
#
DISCID=aa0c530c
DTITLE=Keb' Mo' - The Reflection
DYEAR=2011
DGENRE=Blues
TTITLE0=The Whole Enchilada
TTITLE1=Inside Outside
TTITLE2=All The Way
TTITLE3=The Reflection (I See Myself in You)
TTITLE4=Feat.India Arie_Crush On You
TTITLE5=Feat.Dave Koz_One of These Nights
TTITLE6=Feat.Vince Gill_My Baby's Tellin' Lies
TTITLE7=Feat.Marcus Miller_My Shadow
TTITLE8=We Don't Need It
TTITLE9=Feat.Marcus Miller_Just Lookin'
TTITLE10=Walk Through Fire
TTITLE11=Something Within
EXTD=YEAR: 2011
EXTT0=
EXTT1=
EXTT2=
EXTT3=
EXTT4=
EXTT5=
EXTT6=
EXTT7=
EXTT8=
EXTT9=
EXTT10=
EXTT11=
PLAYORDER=
